<?xml version="1.0" standalone="no"?>
<!DOCTYPE svg PUBLIC "-//W3C//DTD SVG 20010904//EN"
        "http://www.w3.org/TR/2001/REC-SVG-20010904/DTD/svg10.dtd">
<svg version="1.0" xmlns="http://www.w3.org/2000/svg"
     width="1024.000000pt" height="1024.000000pt" viewBox="0 0 1024.000000 1024.000000"
     preserveAspectRatio="xMidYMid meet">

    <g transform="translate(0.000000,1024.000000) scale(0.100000,-0.100000)"
       fill="#0066CC" stroke="none">
        <path d="M2736 9019 c-742 -51 -1330 -520 -1502 -1196 -60 -239 -57 -114 -61
-2503 -5 -2369 -2 -2542 43 -2760 65 -320 200 -577 418 -795 262 -261 563
-409 958 -472 106 -17 255 -18 2528 -18 2280 0 2421 1 2530 18 410 64 710 214
971 483 231 240 367 520 426 884 16 96 17 295 21 2375 3 2360 1 2502 -38 2697
-85 417 -312 763 -649 990 -227 152 -441 234 -741 285 -98 16 -261 17 -2445
19 -1287 1 -2393 -2 -2459 -7z"/>
        <path fill="#FFFFFF" d="M5622 7163 c63 -29 134 -96 166 -158 l27 -50
3 -1454 c2 -1266 0 -1462 -13 -1506 -18 -62 -78 -134 -143 -173 l-47 -27 -886
-3 -887 -2 -7 45 c-33 225 -202 413 -430 481 -89 27 -249 25 -340 -3 -201 -63
-371 -246 -406 -438 -7 -33 -13 -66 -15 -73 -3 -11 -33 -13 -147 -10 -130 3
-146 6 -192 30 -60 31 -114 87 -146 148 l-24 45 0 1470 0 1470 27 51 c39 73
116 139 192 163 60 20 97 20 1641 18 l1580 -2 47 -22z"/>
        <path fill="#FFFFFF" d="M7195 6523 c62 -33 98
-78 310 -388 109 -159 263 -383 342 -497 79 -114 158 -238 176 -275 l32 -68 3
-422 3 -423 25 0 c30 0 93 -31 117 -58 38 -42 46 -90 46 -272 -1 -184 -7 -219
-47 -265 -51 -58 -84 -65 -343 -65 l-236 0 -6 63 c-23 242 -193 456 -429 538
-257 89 -553 0 -714 -214 -84 -113 -134 -239 -134 -341 l0 -46 -68 0 c-86 0
-160 34 -194 88 l-23 37 -3 1233 c-1 832 1 1246 8 1272 13 48 49 92 92 114 29
14 86 16 518 13 476 -2 486 -2 525 -24z m-133 -2324 c174 -37 306 -175 340
-358 38 -203 -115 -421 -331 -471 -32 -8 -83 -10 -128 -7 -217 16 -385 201
-385 423 1 189 135 357 325 409 65 17 111 18 179 4z m-3696 -99 c160 -56 259
-199 259 -375 0 -69 -5 -89 -32 -147 -40 -84 -107 -151 -193 -192 -58 -28 -75
-31 -160 -31 -86 0 -101 3 -162 32 -194 92 -275 311 -188 510 37 85 146 178
243 208 64 20 168 18 233 -5z"/>
        <path d="M2840 6652 c-22 -10 -42 -32 -54 -56 -17 -36 -18 -43 -5 -79 27 -77
42 -81 267 -82 l197 0 81 -270 c45 -148 129 -426 187 -618 l105 -347 -58 -56
c-80 -77 -113 -150 -118 -269 -3 -74 0 -100 17 -146 48 -128 125 -203 244
-240 179 -56 371 18 453 175 l27 53 446 136 c244 76 454 145 464 155 33 29 47
75 36 115 -13 46 -61 87 -102 87 -18 0 -212 -56 -432 -124 l-400 -123 -27 57
c-55 114 -145 186 -272 220 l-59 15 -199 660 c-109 363 -206 671 -217 685 -10
14 -35 35 -57 47 -37 22 -50 23 -264 23 -194 0 -230 -2 -260 -18z m1057 -1670
c29 -16 59 -60 67 -99 16 -73 -40 -162 -112 -178 -45 -9 -107 11 -136 46 -112
133 29 312 181 231z"/>
        <path d="M4545 6302 c-11 -2 -179 -55 -374 -119 -368 -119 -393 -131 -407
-189 -8 -33 174 -634 192 -634 6 0 42 -16 80 -35 70 -35 168 -120 199 -173
l17 -28 320 102 c217 69 327 109 344 125 47 44 44 60 -81 466 -64 208 -124
391 -133 407 -31 53 -102 89 -157 78z"/>
        <path d="M6425 6185 l-25 -24 0 -316 0 -317 29 -29 29 -29 487 0 486 0 24 25
c31 30 31 53 1 98 -165 243 -413 591 -429 602 -18 12 -71 15 -300 15 l-278 0
-24 -25z"/>
    </g>
</svg>
